<svg width="893" height="887" viewBox="0 0 893 887" fill="none" xmlns="http://www.w3.org/2000/svg">
<g clip-path="url(#clip0_150_67)">
<path d="M417.63 132.929C451.343 147.207 465.918 172.041 467.999 198.581C470.076 225.083 459.696 253.242 443.606 274.265C421.271 303.447 384.723 326.363 364.606 409.428L364.123 411.954C354.304 464.795 365.48 504.046 383.54 531.699C398.898 555.217 419.247 570.366 435.936 578.353C424.579 556.976 416.946 534.509 412.248 512.952C403.412 472.408 404.943 435.016 411.662 414.073C418.362 393.192 436.69 355.908 460.311 334.364C472.124 323.59 485.334 316.687 499.126 317.848C512.932 319.01 527.158 328.237 541.029 349.347C563.96 384.245 567.976 426.843 558.856 469.814C549.759 512.674 527.588 555.942 498.019 592.408C501.108 597.109 514.462 613.377 535.588 627.903C557.181 642.748 586.846 655.742 621.924 652.75L622.172 653.703C598.247 664.496 570.181 667.192 543.769 663.007C517.359 658.822 492.56 647.75 475.182 630.964C470.382 626.328 465.881 621.499 461.66 616.516C382.208 605.952 297.497 542.908 284.498 443.664C272.549 352.444 324.132 295.662 363.741 250.769C378.463 234.083 389.478 219.479 397.954 201.68C406.431 183.879 412.383 162.853 416.942 133.314L417.04 132.679L417.63 132.929ZM480.926 156.646C598.452 203.065 642.483 297.661 649.983 336.003L649.984 336.009C677.114 484.612 589.383 569.228 523.184 596.262L522.872 596.389L522.636 596.147L511.097 584.28L510.605 583.773L511.246 583.478C591.843 546.361 599.3 466.071 599.179 431.256C598.786 318.466 518.984 266.831 483.007 254.943L482.584 254.804L482.674 254.368C482.762 253.938 483.051 253.402 483.412 252.799C483.782 252.182 484.291 251.395 484.862 250.472C486.017 248.606 487.501 246.065 488.964 242.687C491.889 235.934 494.745 225.807 494.69 211.033C494.598 186.579 487.226 168.255 480.319 157.379L479.495 156.081L480.926 156.646ZM490.259 427.975C482.124 429.328 473.757 436.209 469.467 443.602C457.105 460.771 449.531 502.428 469.833 549.351L470.185 550.168L470.7 549.442C483.722 531.042 495.028 512.869 502.273 495.423C509.517 477.979 512.719 461.217 509.47 445.657C507.944 438.347 505.233 433.571 501.827 430.797C498.409 428.013 494.352 427.294 490.259 427.975Z" fill="url(#paint0_linear_150_67)"/>
<path d="M293.55 755.85C294.05 752.85 294.45 749.5 294.75 745.8C295.05 742 295.3 738.1 295.5 734.1C295.8 730.1 296 726.1 296.1 722.1C296.3 718.1 296.4 714.35 296.4 710.85C296.5 707.35 296.55 704.25 296.55 701.55C296.55 698.85 296.55 696.75 296.55 695.25C296.45 690.55 296.65 686.75 297.15 683.85C297.75 680.85 298.65 678.5 299.85 676.8C301.05 675.1 302.6 673.95 304.5 673.35C306.4 672.65 308.7 672.3 311.4 672.3C314 672.3 316.25 672.65 318.15 673.35C320.05 673.95 321.6 675.1 322.8 676.8C324 678.4 324.85 680.7 325.35 683.7C325.95 686.6 326.2 690.4 326.1 695.1C326.1 696.5 326.05 698.45 325.95 700.95C325.95 703.35 326 706.1 326.1 709.2C328.1 705.7 330.55 701.95 333.45 697.95C336.35 693.85 339.6 690.05 343.2 686.55C346.8 682.95 350.65 680 354.75 677.7C358.85 675.3 363.1 674.1 367.5 674.1C371.6 674.1 375.1 675.3 378 677.7C379.8 679.1 381.1 680.9 381.9 683.1C382.8 685.2 382.95 687.5 382.35 690C381.85 692.5 380.4 695.1 378 697.8C375.7 700.5 372.2 703.15 367.5 705.75C363 708.25 358.3 711.4 353.4 715.2C354 717.9 354.7 720.9 355.5 724.2C356.3 727.5 357.45 730.85 358.95 734.25C360.45 737.55 362.45 740.75 364.95 743.85C367.55 746.95 370.95 749.65 375.15 751.95C378.95 754.05 381.8 756.35 383.7 758.85C385.6 761.25 386.75 763.65 387.15 766.05C387.55 768.35 387.3 770.55 386.4 772.65C385.6 774.75 384.35 776.5 382.65 777.9C380.75 779.4 377.9 780.85 374.1 782.25C370.4 783.55 366.4 784.2 362.1 784.2C359.9 784.2 357.65 783.95 355.35 783.45C353.05 782.95 350.85 782.1 348.75 780.9C346.75 779.6 344.85 777.95 343.05 775.95C341.25 773.95 339.75 771.45 338.55 768.45C336.85 764.35 335.5 759.3 334.5 753.3C333.5 747.2 332.8 741.2 332.4 735.3C331.5 736.4 330.65 737.4 329.85 738.3C329.05 739.1 328.25 739.95 327.45 740.85C327.65 743.65 327.9 746.3 328.2 748.8C328.5 751.3 328.8 753.65 329.1 755.85C329.9 761.25 330.15 765.7 329.85 769.2C329.55 772.7 328.65 775.5 327.15 777.6C325.75 779.6 323.75 781 321.15 781.8C318.55 782.6 315.3 783 311.4 783C307.5 783 304.2 782.6 301.5 781.8C298.9 781 296.85 779.6 295.35 777.6C293.95 775.5 293.1 772.7 292.8 769.2C292.5 765.7 292.75 761.25 293.55 755.85ZM390.251 751.05C391.951 746.75 393.701 741.7 395.501 735.9C397.401 730.1 399.101 724.4 400.601 718.8C402.201 713.1 403.601 708 404.801 703.5C406.001 698.9 406.801 695.65 407.201 693.75C408.001 690.05 408.851 686.9 409.751 684.3C410.751 681.6 412.051 679.4 413.651 677.7C415.351 675.9 417.551 674.6 420.251 673.8C422.951 672.9 426.501 672.45 430.901 672.45C435.201 672.45 438.701 672.9 441.401 673.8C444.101 674.6 446.301 675.9 448.001 677.7C449.701 679.4 451.001 681.6 451.901 684.3C452.901 687 453.851 690.15 454.751 693.75C455.151 695.65 455.901 698.9 457.001 703.5C458.201 708 459.601 713.1 461.201 718.8C462.801 724.4 464.501 730.1 466.301 735.9C468.101 741.7 469.851 746.75 471.551 751.05C473.551 756.05 474.851 760.3 475.451 763.8C476.051 767.3 475.901 770.25 475.001 772.65C474.101 775.05 472.501 777 470.201 778.5C467.901 780 464.851 781.2 461.051 782.1C458.251 782.8 455.601 783.15 453.101 783.15C448.301 783.15 444.651 781.45 442.151 778.05C439.651 774.55 438.001 768.65 437.201 760.35H424.751C423.951 768.65 422.251 774.55 419.651 778.05C417.151 781.45 413.501 783.15 408.701 783.15C406.201 783.15 403.551 782.8 400.751 782.1C397.051 781.2 394.001 780 391.601 778.5C389.301 777 387.701 775.05 386.801 772.65C385.901 770.25 385.751 767.3 386.351 763.8C386.951 760.3 388.251 756.05 390.251 751.05ZM434.651 736.65C434.051 731.95 433.401 727.35 432.701 722.85C432.101 718.35 431.501 714.5 430.901 711.3C430.201 714.5 429.551 718.35 428.951 722.85C428.351 727.35 427.751 731.95 427.151 736.65H434.651ZM486.69 705.75C486.19 702.35 485.34 700.05 484.14 698.85C483.04 697.55 481.79 696.9 480.39 696.9C478.99 696.9 477.59 697.3 476.19 698.1C474.89 698.8 473.69 699.55 472.59 700.35C471.29 701.25 470.09 701.7 468.99 701.7C467.59 701.7 466.34 701.15 465.24 700.05C464.24 698.85 463.39 697.45 462.69 695.85C461.99 694.25 461.49 692.55 461.19 690.75C460.79 688.95 460.59 687.4 460.59 686.1C460.59 682.1 462.54 678.85 466.44 676.35C470.34 673.75 477.09 672.45 486.69 672.45H515.79C525.29 672.45 531.99 673.75 535.89 676.35C539.79 678.85 541.74 682.1 541.74 686.1C541.74 687.4 541.54 688.95 541.14 690.75C540.84 692.55 540.34 694.25 539.64 695.85C538.94 697.45 538.04 698.85 536.94 700.05C535.94 701.15 534.74 701.7 533.34 701.7C532.34 701.7 531.14 701.25 529.74 700.35C528.64 699.55 527.39 698.8 525.99 698.1C524.69 697.3 523.34 696.9 521.94 696.9C520.54 696.9 519.29 697.55 518.19 698.85C517.09 700.05 516.29 702.35 515.79 705.75C515.89 710.15 515.99 714.45 516.09 718.65C516.19 722.75 516.34 726.85 516.54 730.95C516.84 735.05 517.19 739.15 517.59 743.25C517.99 747.35 518.54 751.55 519.24 755.85C520.04 761.25 520.29 765.7 519.99 769.2C519.69 772.7 518.79 775.5 517.29 777.6C515.89 779.6 513.89 781 511.29 781.8C508.69 782.6 505.44 783 501.54 783H500.94C497.04 783 493.74 782.6 491.04 781.8C488.44 781 486.44 779.6 485.04 777.6C483.64 775.5 482.79 772.7 482.49 769.2C482.19 765.7 482.44 761.25 483.24 755.85C484.64 747.25 485.54 738.95 485.94 730.95C486.34 722.95 486.59 714.55 486.69 705.75ZM614.87 702.3C614.87 710.3 613.07 716.4 609.47 720.6C605.97 724.8 601.42 727.2 595.82 727.8C598.02 728.6 599.77 730 601.07 732C602.47 734 603.82 736.2 605.12 738.6C606.42 741 607.92 743.45 609.62 745.95C611.32 748.35 613.62 750.45 616.52 752.25C619.22 753.95 621.42 756.05 623.12 758.55C624.92 761.05 626.07 763.6 626.57 766.2C627.17 768.8 627.07 771.25 626.27 773.55C625.57 775.85 624.17 777.65 622.07 778.95C620.47 779.75 617.92 780.65 614.42 781.65C611.02 782.65 607.42 783.15 603.62 783.15C601.52 783.15 599.42 782.95 597.32 782.55C595.22 782.15 593.27 781.45 591.47 780.45C589.77 779.35 588.22 777.95 586.82 776.25C585.52 774.45 584.52 772.25 583.82 769.65C583.42 767.95 583.17 765.85 583.07 763.35C583.07 760.85 583.07 758.25 583.07 755.55C583.07 752.75 582.97 749.95 582.77 747.15C582.57 744.35 582.12 741.9 581.42 739.8C581.02 738.6 580.52 737.65 579.92 736.95C579.42 736.25 578.92 735.75 578.42 735.45C577.92 735.15 577.42 734.95 576.92 734.85C576.42 734.75 576.02 734.65 575.72 734.55C576.02 738.35 576.37 742.1 576.77 745.8C577.27 749.4 577.77 752.75 578.27 755.85C579.07 761.25 579.32 765.7 579.02 769.2C578.72 772.7 577.82 775.5 576.32 777.6C574.92 779.6 572.92 781 570.32 781.8C567.72 782.6 564.47 783 560.57 783C556.67 783 553.37 782.6 550.67 781.8C548.07 781 546.02 779.6 544.52 777.6C543.12 775.5 542.27 772.7 541.97 769.2C541.67 765.7 541.92 761.25 542.72 755.85C543.22 752.85 543.62 749.5 543.92 745.8C544.22 742 544.47 738.1 544.67 734.1C544.97 730.1 545.17 726.1 545.27 722.1C545.47 718.1 545.57 714.35 545.57 710.85C545.67 707.35 545.72 704.25 545.72 701.55C545.72 698.85 545.72 696.75 545.72 695.25C545.62 690.45 546.17 686.6 547.37 683.7C548.57 680.7 550.32 678.4 552.62 676.8C554.92 675.1 557.82 673.95 561.32 673.35C564.82 672.75 568.87 672.45 573.47 672.45C580.17 672.45 586.07 673 591.17 674.1C596.37 675.1 600.72 676.8 604.22 679.2C607.72 681.5 610.37 684.55 612.17 688.35C613.97 692.15 614.87 696.8 614.87 702.3ZM580.82 698.4C577.92 698.4 576.12 699.45 575.42 701.55C574.82 703.55 574.52 706.65 574.52 710.85C576.02 711.85 577.62 712.35 579.32 712.35C581.52 712.35 583.22 711.5 584.42 709.8C585.72 708 586.37 706 586.37 703.8C586.37 701.6 585.77 700.15 584.57 699.45C583.47 698.75 582.22 698.4 580.82 698.4ZM632.389 751.05C634.089 746.75 635.839 741.7 637.639 735.9C639.539 730.1 641.239 724.4 642.739 718.8C644.339 713.1 645.739 708 646.939 703.5C648.139 698.9 648.939 695.65 649.339 693.75C650.139 690.05 650.989 686.9 651.889 684.3C652.889 681.6 654.189 679.4 655.789 677.7C657.489 675.9 659.689 674.6 662.389 673.8C665.089 672.9 668.639 672.45 673.039 672.45C677.339 672.45 680.839 672.9 683.539 673.8C686.239 674.6 688.439 675.9 690.139 677.7C691.839 679.4 693.139 681.6 694.039 684.3C695.039 687 695.989 690.15 696.889 693.75C697.289 695.65 698.039 698.9 699.139 703.5C700.339 708 701.739 713.1 703.339 718.8C704.939 724.4 706.639 730.1 708.439 735.9C710.239 741.7 711.989 746.75 713.689 751.05C715.689 756.05 716.989 760.3 717.589 763.8C718.189 767.3 718.039 770.25 717.139 772.65C716.239 775.05 714.639 777 712.339 778.5C710.039 780 706.989 781.2 703.189 782.1C700.389 782.8 697.739 783.15 695.239 783.15C690.439 783.15 686.789 781.45 684.289 778.05C681.789 774.55 680.139 768.65 679.339 760.35H666.889C666.089 768.65 664.389 774.55 661.789 778.05C659.289 781.45 655.639 783.15 650.839 783.15C648.339 783.15 645.689 782.8 642.889 782.1C639.189 781.2 636.139 780 633.739 778.5C631.439 777 629.839 775.05 628.939 772.65C628.039 770.25 627.889 767.3 628.489 763.8C629.089 760.3 630.389 756.05 632.389 751.05ZM676.789 736.65C676.189 731.95 675.539 727.35 674.839 722.85C674.239 718.35 673.639 714.5 673.039 711.3C672.339 714.5 671.689 718.35 671.089 722.85C670.489 727.35 669.889 731.95 669.289 736.65H676.789Z" fill="#FF4117"/>
<path d="M723.356 751.05C725.056 746.75 726.806 741.7 728.606 735.9C730.506 730.1 732.206 724.4 733.706 718.8C735.306 713.1 736.706 708 737.906 703.5C739.106 698.9 739.906 695.65 740.306 693.75C741.106 690.05 741.956 686.9 742.856 684.3C743.856 681.6 745.156 679.4 746.756 677.7C748.456 675.9 750.656 674.6 753.356 673.8C756.056 672.9 759.606 672.45 764.006 672.45C768.306 672.45 771.806 672.9 774.506 673.8C777.206 674.6 779.406 675.9 781.106 677.7C782.806 679.4 784.106 681.6 785.006 684.3C786.006 687 786.956 690.15 787.856 693.75C788.256 695.65 789.006 698.9 790.106 703.5C791.306 708 792.706 713.1 794.306 718.8C795.906 724.4 797.606 730.1 799.406 735.9C801.206 741.7 802.956 746.75 804.656 751.05C806.656 756.05 807.956 760.3 808.556 763.8C809.156 767.3 809.006 770.25 808.106 772.65C807.206 775.05 805.606 777 803.306 778.5C801.006 780 797.956 781.2 794.156 782.1C791.356 782.8 788.706 783.15 786.206 783.15C781.406 783.15 777.756 781.45 775.256 778.05C772.756 774.55 771.106 768.65 770.306 760.35H757.856C757.056 768.65 755.356 774.55 752.756 778.05C750.256 781.45 746.606 783.15 741.806 783.15C739.306 783.15 736.656 782.8 733.856 782.1C730.156 781.2 727.106 780 724.706 778.5C722.406 777 720.806 775.05 719.906 772.65C719.006 770.25 718.856 767.3 719.456 763.8C720.056 760.3 721.356 756.05 723.356 751.05ZM767.756 736.65C767.156 731.95 766.506 727.35 765.806 722.85C765.206 718.35 764.606 714.5 764.006 711.3C763.306 714.5 762.656 718.35 762.056 722.85C761.456 727.35 760.856 731.95 760.256 736.65H767.756Z" fill="#918F8F"/>
<path d="M238.59 785.684C213.785 785.684 192.398 773.184 185.562 746.426C184.488 742.227 184 738.027 184 733.828C184 706.973 204.801 681.875 226.871 677.48C219.449 672.793 213.297 664.688 213.297 655.801C213.297 653.945 213.492 652.09 214.078 650.234C217.594 638.906 225.211 632.754 239.762 632.754C247.77 632.754 253.043 633.438 257.535 639.297C261.246 644.18 262.125 648.086 262.125 651.113V652.188L250.309 662.539C248.648 657.656 246.012 650.527 242.105 650.527C241.617 650.527 241.129 650.723 240.641 650.918C238.785 651.797 238.102 654.824 238.102 658.242C238.102 661.465 238.785 664.98 239.762 666.934C242.105 671.621 246.988 677.48 252.066 677.48H253.531V679.238H252.066C246.109 679.238 234.488 690.957 227.75 701.699C222.672 709.707 218.863 719.082 218.863 732.363C218.863 735 219.059 737.832 219.352 740.762C221.305 757.754 232.828 766.25 242.105 766.25C250.895 766.25 255.191 758.73 255.191 749.062C255.191 735.488 249.137 726.211 236.637 720.059L273.551 700.039C285.172 710 290.055 722.598 290.055 735.098C290.055 758.34 273.258 781.094 251.383 784.609C247.086 785.293 242.789 785.684 238.59 785.684Z" fill="#FF4117"/>
<g filter="url(#filter0_f_150_67)">
<path d="M232.078 641.151C232.202 641.103 232.299 641.007 232.349 640.884C232.398 640.761 232.396 640.621 232.342 640.495C232.289 640.37 232.19 640.271 232.067 640.221C231.944 640.171 231.807 640.176 231.687 640.231C231.687 640.231 231.687 640.231 231.687 640.231C231.394 640.365 231.1 640.517 230.823 640.673C225.861 643.584 222.285 648.553 221.128 654.041C221.063 654.347 221.006 654.648 220.954 654.959C221.022 654.651 221.095 654.354 221.177 654.053C222.616 648.652 226.435 644.005 231.267 641.513C231.532 641.382 231.811 641.256 232.078 641.151Z" fill="white"/>
</g>
<g filter="url(#filter1_f_150_67)">
<path d="M444.188 679.027C443.742 678.87 443.283 678.687 442.823 678.517C438.737 676.969 434.324 676.054 429.883 676.171C425.453 676.273 421.024 677.455 417.238 679.697C416.818 679.944 416.41 680.202 416 680.476C416.443 680.259 416.88 680.059 417.324 679.867C421.332 678.125 425.61 677.275 429.909 677.17C434.214 677.058 438.53 677.671 442.768 678.698C443.244 678.811 443.724 678.934 444.188 679.027Z" fill="white"/>
</g>
<g filter="url(#filter2_f_150_67)">
<path d="M303.5 765.5C303.533 764.2 303.565 762.9 303.595 761.6C303.865 749.9 304 738.2 304 726.5C304 714.8 303.865 703.1 303.595 691.4C303.565 690.1 303.533 688.8 303.5 687.5C303.467 688.8 303.435 690.1 303.405 691.4C303.135 703.1 303 714.8 303 726.5C303 738.2 303.135 749.9 303.405 761.6C303.435 762.9 303.467 764.2 303.5 765.5Z" fill="#FFEBEB"/>
</g>
<g filter="url(#filter3_f_150_67)">
<path d="M554.5 759.5C554.533 758.483 554.565 757.467 554.595 756.45C554.865 747.3 555 738.15 555 729C555 719.85 554.865 710.7 554.595 701.55C554.565 700.533 554.533 699.517 554.5 698.5C554.467 699.517 554.435 700.533 554.405 701.55C554.135 710.7 554 719.85 554 729C554 738.15 554.135 747.3 554.405 756.45C554.435 757.467 554.467 758.483 554.5 759.5Z" fill="#FFEBEB"/>
</g>
<g filter="url(#filter4_f_150_67)">
<path d="M732.657 753.382C732.951 752.474 733.243 751.565 733.534 750.656C736.153 742.474 738.641 734.256 741 726C743.359 717.744 745.588 709.451 747.687 701.121C747.92 700.196 748.152 699.27 748.382 698.343C748.088 699.252 747.795 700.16 747.504 701.069C744.886 709.251 742.397 717.47 740.038 725.725C737.68 733.981 735.451 742.274 733.352 750.604C733.118 751.529 732.887 752.455 732.657 753.382Z" fill="#FFEBEB"/>
</g>
<g filter="url(#filter5_f_150_67)">
<path d="M487.535 762.467C487.634 761.503 487.731 760.538 487.826 759.574C488.686 750.892 489.41 742.2 490 733.5C490.59 724.8 491.045 716.09 491.365 707.372C491.401 706.403 491.435 705.434 491.467 704.465C491.369 705.429 491.271 706.394 491.176 707.359C490.317 716.041 489.592 724.732 489.002 733.432C488.412 742.133 487.957 750.842 487.637 759.561C487.601 760.53 487.567 761.498 487.535 762.467Z" fill="#FFEBEB"/>
</g>
<g filter="url(#filter6_f_150_67)">
<path d="M636.097 754.036C636.03 754.431 635.913 754.834 635.809 755.22C634.769 758.74 634.241 762.567 635.091 766.27C635.898 769.969 638.063 773.283 640.897 775.66C641.204 775.919 641.525 776.175 641.859 776.427C641.569 776.125 641.293 775.824 641.03 775.524C638.594 772.77 636.836 769.545 636.067 766.051C635.265 762.552 635.481 758.907 635.995 755.257C636.041 754.859 636.096 754.438 636.097 754.036Z" fill="white"/>
</g>
<g filter="url(#filter7_f_150_67)">
<path d="M245.071 776.992C244.611 777.136 244.135 777.259 243.654 777.362C239.351 778.218 234.936 778.02 230.649 777.39C226.381 776.701 222.081 775.538 218.517 772.961C218.126 772.672 217.745 772.362 217.386 772.033C217.697 772.408 218.037 772.768 218.395 773.107C221.673 776.159 226.123 777.682 230.496 778.378C234.894 779.029 239.481 778.943 243.706 777.545C244.176 777.382 244.635 777.198 245.071 776.992Z" fill="white"/>
</g>
</g>
<defs>
<filter id="filter0_f_150_67" x="220.354" y="639.587" width="12.6302" height="15.9725" filterUnits="userSpaceOnUse" color-interpolation-filters="sRGB">
<feFlood flood-opacity="0" result="BackgroundImageFix"/>
<feBlend mode="normal" in="SourceGraphic" in2="BackgroundImageFix" result="shape"/>
<feGaussianBlur stdDeviation="0.3" result="effect1_foregroundBlur_150_67"/>
</filter>
<filter id="filter1_f_150_67" x="415.4" y="675.56" width="29.3885" height="5.51543" filterUnits="userSpaceOnUse" color-interpolation-filters="sRGB">
<feFlood flood-opacity="0" result="BackgroundImageFix"/>
<feBlend mode="normal" in="SourceGraphic" in2="BackgroundImageFix" result="shape"/>
<feGaussianBlur stdDeviation="0.3" result="effect1_foregroundBlur_150_67"/>
</filter>
<filter id="filter2_f_150_67" x="302.4" y="686.9" width="2.2" height="79.2" filterUnits="userSpaceOnUse" color-interpolation-filters="sRGB">
<feFlood flood-opacity="0" result="BackgroundImageFix"/>
<feBlend mode="normal" in="SourceGraphic" in2="BackgroundImageFix" result="shape"/>
<feGaussianBlur stdDeviation="0.3" result="effect1_foregroundBlur_150_67"/>
</filter>
<filter id="filter3_f_150_67" x="553.4" y="697.9" width="2.2" height="62.2" filterUnits="userSpaceOnUse" color-interpolation-filters="sRGB">
<feFlood flood-opacity="0" result="BackgroundImageFix"/>
<feBlend mode="normal" in="SourceGraphic" in2="BackgroundImageFix" result="shape"/>
<feGaussianBlur stdDeviation="0.3" result="effect1_foregroundBlur_150_67"/>
</filter>
<filter id="filter4_f_150_67" x="732.057" y="697.744" width="16.9251" height="56.2381" filterUnits="userSpaceOnUse" color-interpolation-filters="sRGB">
<feFlood flood-opacity="0" result="BackgroundImageFix"/>
<feBlend mode="normal" in="SourceGraphic" in2="BackgroundImageFix" result="shape"/>
<feGaussianBlur stdDeviation="0.3" result="effect1_foregroundBlur_150_67"/>
</filter>
<filter id="filter5_f_150_67" x="486.935" y="703.865" width="5.13213" height="59.2029" filterUnits="userSpaceOnUse" color-interpolation-filters="sRGB">
<feFlood flood-opacity="0" result="BackgroundImageFix"/>
<feBlend mode="normal" in="SourceGraphic" in2="BackgroundImageFix" result="shape"/>
<feGaussianBlur stdDeviation="0.3" result="effect1_foregroundBlur_150_67"/>
</filter>
<filter id="filter6_f_150_67" x="634.068" y="753.435" width="8.39092" height="23.5916" filterUnits="userSpaceOnUse" color-interpolation-filters="sRGB">
<feFlood flood-opacity="0" result="BackgroundImageFix"/>
<feBlend mode="normal" in="SourceGraphic" in2="BackgroundImageFix" result="shape"/>
<feGaussianBlur stdDeviation="0.3" result="effect1_foregroundBlur_150_67"/>
</filter>
<filter id="filter7_f_150_67" x="216.786" y="771.433" width="28.8851" height="7.93633" filterUnits="userSpaceOnUse" color-interpolation-filters="sRGB">
<feFlood flood-opacity="0" result="BackgroundImageFix"/>
<feBlend mode="normal" in="SourceGraphic" in2="BackgroundImageFix" result="shape"/>
<feGaussianBlur stdDeviation="0.3" result="effect1_foregroundBlur_150_67"/>
</filter>
<linearGradient id="paint0_linear_150_67" x1="406.646" y1="143.159" x2="579.782" y2="762.628" gradientUnits="userSpaceOnUse">
<stop offset="0.0484411" stop-color="#FF0000"/>
<stop offset="0.697115" stop-color="#FF7700"/>
<stop offset="0.878404" stop-color="#918F8F"/>
</linearGradient>
<clipPath id="clip0_150_67">
<rect width="893" height="887" fill="white"/>
</clipPath>
</defs>
</svg>
